<?xml version="1.0" encoding="UTF-8" standalone="no"?>
<svg
   version="1.1"
   width="1024"
   height="1024"
   id="svg490"
   sodipodi:docname="logo.svg"
   inkscape:version="1.3.2 (091e20e, 2023-11-25, custom)"
   inkscape:export-filename="logo.png"
   inkscape:export-xdpi="24"
   inkscape:export-ydpi="24"
   xmlns:inkscape="http://www.inkscape.org/namespaces/inkscape"
   xmlns:sodipodi="http://sodipodi.sourceforge.net/DTD/sodipodi-0.dtd"
   xmlns="http://www.w3.org/2000/svg"
   xmlns:svg="http://www.w3.org/2000/svg">
  <defs
     id="defs490" />
  <sodipodi:namedview
     id="namedview490"
     pagecolor="#ffffff"
     bordercolor="#000000"
     borderopacity="0.25"
     inkscape:showpageshadow="2"
     inkscape:pageopacity="0.0"
     inkscape:pagecheckerboard="0"
     inkscape:deskcolor="#d1d1d1"
     inkscape:zoom="0.37939453"
     inkscape:cx="-48.761905"
     inkscape:cy="633.90476"
     inkscape:window-width="1920"
     inkscape:window-height="991"
     inkscape:window-x="-9"
     inkscape:window-y="-9"
     inkscape:window-maximized="1"
     inkscape:current-layer="svg490" />
  <path
     d="m 817.20592,541.49035 c 0.33,0.99 0.66,1.98 1,3 -4.39453,4.0039 -4.39453,4.0039 -6,5 -0.99,-0.33 -1.98,-0.66 -3,-1 2.05234,-2.2478 3.00667,-3.00223 6,-4 0.66,-0.99 1.32,-1.98 2,-3 z"
     fill="#e5e3e4"
     id="path473" />
  <path
     d="m 424.99032,306.12663 c 1.38136,0.001 2.76272,4.8e-4 4.14407,-0.002 3.70175,-0.001 7.40297,0.0222 11.1046,0.0503 3.88633,0.0252 7.77268,0.0274 11.65907,0.0321 7.33784,0.0124 14.67544,0.0451 22.01317,0.0854 8.36289,0.0449 16.72579,0.0668 25.08877,0.0868 17.18327,0.0417 34.36631,0.11188 51.5494,0.20129 0.0254,7.17162 0.0429,14.34324 0.0549,21.51489 0.005,2.43946 0.0119,4.87892 0.0205,7.31836 0.0121,3.50742 0.0178,7.01479 0.0222,10.52222 0.005,1.08976 0.0103,2.17951 0.0156,3.30229 7e-5,1.02068 1.5e-4,2.04136 2.3e-4,3.09297 0.002,0.89491 0.004,1.78982 0.007,2.71184 -0.12351,2.60608 -0.5894,4.98696 -1.12026,7.53743 -0.11679,2.83631 -0.18761,5.64769 -0.20312,8.48438 -0.006,0.81503 -0.0114,1.63006 -0.0173,2.46978 -0.009,1.72133 -0.016,3.44266 -0.0198,5.16401 -0.01,2.60937 -0.0407,5.21795 -0.0723,7.82714 -0.007,1.67969 -0.0118,3.35937 -0.0156,5.03907 -0.0185,1.1536 -0.0185,1.1536 -0.0374,2.3305 0.0347,8.60539 2.73525,15.66363 7.86554,22.49762 0.43724,0.59257 0.87447,1.18513 1.32495,1.79566 9.94069,13.23247 21.65172,25.84584 38.17505,30.39184 5.5642,0.59235 11.09659,0.60638 16.6875,0.60938 1.62738,0.015 3.25474,0.0318 4.88208,0.0501 4.27743,0.0435 8.55466,0.0636 12.83228,0.0787 4.26201,0.0193 8.52378,0.0616 12.78564,0.10163 18.27039,0.16192 36.54147,0.20115 54.8125,0.16015 0.0247,5.51758 0.0428,11.03512 0.0549,16.55274 0.005,1.87793 0.0119,3.75586 0.0205,5.63378 0.0121,2.69565 0.0178,5.39125 0.0222,8.08692 0.005,0.84275 0.0103,1.68551 0.0156,2.5538 5.7e-4,5.94502 5.7e-4,5.94502 -1.1133,8.17276 -2.82123,0.32311 -5.60736,0.5551 -8.4375,0.75 -7.8567,0.71257 -13.27106,2.28248 -19.5625,7.25 -0.79922,0.59684 -1.59844,1.19367 -2.42187,1.8086 -2.22731,1.69231 -4.40738,3.42742 -6.57813,5.1914 l -2.49609,1.70703 c -3.31369,3.03453 -4.86839,6.32699 -6.75391,10.35547 -0.35062,0.71994 -0.70125,1.43988 -1.0625,2.18164 -5.74483,11.89844 -4.84225,25.32526 -0.6875,37.75586 5.20905,12.6447 16.19141,24.72693 28.6875,30.375 4.31416,1.51057 8.62629,2.17586 13.14453,2.72656 0.69146,0.0881 1.38293,0.17612 2.09534,0.26685 1.69036,0.21467 3.38143,0.42371 5.07263,0.63159 0.0761,9.95948 0.0571,19.91764 0.0125,29.8772 -0.0137,3.43351 -0.0216,6.86701 -0.03,10.30054 -0.0179,5.9302 -0.0568,11.85998 -0.11612,17.78989 -0.0328,3.32817 -0.055,6.65553 -0.0616,9.98391 -0.0439,17.86776 -0.47073,34.63279 -9.92972,50.36096 -0.37979,0.64969 -0.75958,1.29938 -1.15088,1.96875 -11.22997,18.47614 -29.18261,29.90643 -49.68896,35.99219 -6.34406,1.51865 -12.47892,1.87395 -18.96274,1.867 -0.87603,0.003 -1.75207,0.006 -2.65465,0.009 -2.92361,0.009 -5.84717,0.0102 -8.7708,0.0117 -2.1015,0.005 -4.203,0.01 -6.3045,0.0151 -5.70302,0.0131 -11.40604,0.0196 -17.10907,0.024 -3.56897,0.003 -7.13793,0.007 -10.7069,0.0115 -11.1833,0.0137 -22.36659,0.0233 -33.5499,0.0272 -12.87712,0.004 -25.75413,0.022 -38.63122,0.051 -9.97315,0.0217 -19.94627,0.0317 -29.91945,0.033 -5.94676,10e-4 -11.89342,0.007 -17.84015,0.0248 -5.60282,0.0166 -11.20546,0.0186 -16.80829,0.01 -2.04404,-7.7e-4 -4.08809,0.003 -6.13211,0.0135 -27.17869,0.12457 -50.64812,-4.91567 -70.78991,-24.42577 -15.1897,-15.31675 -22.85547,-33.6048 -22.85547,-54.94531 h 34 l 5,15 c 1.94037,3.33237 3.6516,6.04405 6,9 0.47696,0.67289 0.95391,1.34578 1.44532,2.03906 9.79712,12.75104 25.63028,16.43083 40.72946,18.539 6.15606,0.67904 12.26656,0.69203 18.45413,0.66486 1.40524,10e-4 2.81049,0.003 4.21573,0.006 3.78317,0.005 7.56623,-0.003 11.34939,-0.0129 4.02232,-0.009 8.04463,-0.007 12.06696,-0.007 6.78509,-9.3e-4 13.57014,-0.01 20.35522,-0.0233 6.86525,-0.0138 13.73045,-0.021 20.59571,-0.0205 20.16049,10e-4 40.32023,-0.0358 60.48042,-0.151 4.64096,-0.0264 9.28189,-0.0456 13.9229,-0.0616 5.47721,-0.0214 10.95354,-0.0679 16.43032,-0.13914 1.8837,-0.0214 3.7675,-0.0349 5.65131,-0.0395 15.70726,-0.0498 29.46512,-2.66525 41.41641,-13.755 8.36013,-8.72224 15.00942,-21.35096 15.07422,-33.66406 -0.0928,-1.67062 -0.0928,-1.67062 -0.1875,-3.375 -2.22803,2.08036 -3.78213,4.1205 -5.3125,6.75 -8.49147,13.75168 -23.1774,25.51811 -38.6875,30.25 -4.91029,0.98041 -9.77258,1.30882 -14.76123,1.5542 -0.83487,0.0421 -1.66974,0.0842 -2.5299,0.12761 -8.51126,0.40053 -17.01012,0.46288 -25.52918,0.451 -1.68057,10e-4 -3.36115,0.003 -5.04172,0.005 -5.421,0.004 -10.84197,-0.004 -16.26297,-0.0124 -1.88167,-0.002 -3.76334,-0.005 -5.64502,-0.007 -12.75456,-0.0166 -25.50897,-0.0571 -38.26344,-0.10713 -2.95039,-0.0111 -5.90078,-0.0208 -8.85118,-0.0301 -11.27049,-0.0364 -22.54045,-0.0966 -33.81061,-0.19061 -3.51258,-0.0287 -7.02504,-0.0487 -10.53772,-0.0609 -4.13365,-0.015 -8.26673,-0.0492 -12.40012,-0.0977 -1.50118,-0.0146 -3.00244,-0.0229 -4.50368,-0.0237 -15.88547,-0.0184 -29.4327,-3.27412 -41.55073,-13.98308 -0.76312,-0.86625 -1.52625,-1.7325 -2.3125,-2.625 -0.61359,-0.62262 -1.22719,-1.24523 -1.85937,-1.88672 -8.23625,-8.62329 -12.9312,-18.47449 -14.57813,-30.23828 0.51448,-3.38086 1.89398,-4.61163 4.125,-7.08984 6.02698,-8.19741 5.24115,-21.11101 4.3125,-30.78516 -1.97678,-11.02524 -7.43842,-19.54868 -14.3125,-28.1875 -2.93489,-3.78013 -3.68609,-7.1271 -9.95906,-10.49461 -11.26889,-1.2521 -17.3902,-2.31789 -28.72844,-2.31789 l 1.39783,-77.53406 25.60217,-0.46594 c 13.15592,-9.86694 24.32384,-21.05876 27,-38 0.74283,-10.43272 1.00741,-20.55206 -4,-30 -0.58394,-1.16015 -0.58394,-1.16015 -1.17969,-2.34375 -5.40056,-9.33114 -15.13687,-15.40912 -24.82031,-19.65625 -1.05961,-0.50853 -1.05961,-0.50853 -2.14062,-1.02734 -4.00216,-1.36139 -7.97866,-1.69389 -12.17188,-2.09766 l -2.5332,-0.26172 c -2.05077,-0.21093 -4.10246,-0.413 -6.1543,-0.61328 -1.53592,-25.96608 4.96625,-46.45829 22.20688,-65.92601 17.6596,-19.56412 38.31621,-31.83585 65.23389,-31.52832 z"
     fill="#0d1017"
     id="path4"
     sodipodi:nodetypes="cccccccccccccccccccccccccccccccccccccccccccccccccccccccccccccscccccccccccccccscccccccccccccccccccccccccccccccccccccccccc" />
  <path
     d="m 470.49284,347.69468 c 15.97064,5.94984 26.92062,15.48098 36.67288,29.41276 4.21996,13.04348 3.25074,23.9497 -1.48926,36.67288 -6.94874,10.78252 -14.79708,17.54406 -26.2481,23.2696 -17.7503,1.87984 -31.94774,0.1268 -47.65612,-8.93552 -11.54692,-10.29182 -15.73274,-17.45892 -18.0572,-32.7636 -0.52202,-10.55104 0.1728,-14.86308 4.65392,-24.75884 16.29696,-17.51926 27.62678,-26.00804 52.12388,-22.89728 z"
     fill="#d9d9d9"
     id="path320-1-6"
     style="stroke-width:2.9785" />
  <path
     d="m 571.91362,307.26284 c 3.98545,1.63432 6.84492,4.40524 9.9375,7.3125 0.5124,0.47373 1.02481,0.94746 1.55273,1.43554 2.42153,2.24922 4.78906,4.53208 7.12305,6.87305 2.1476,2.14056 4.35072,4.13894 6.63672,6.12891 8.84838,7.90081 17.06538,16.48981 25.39453,24.92968 2.67862,2.63865 5.44779,5.168 8.23047,7.69532 5.79581,5.29789 11.34699,10.81071 16.87061,16.39014 3.72977,3.75318 7.52717,7.34437 11.56298,10.77002 4.30859,3.73145 8.1954,7.846 11.89844,12.17187 3.79959,4.36126 7.81754,8.4658 11.91797,12.54297 1.03447,1.04027 1.03447,1.04027 2.08984,2.10156 2.84112,2.83569 5.62131,5.51924 8.77735,8.00782 0.66258,0.5414 1.32515,1.08281 2.00781,1.64062 0,0.66 0,1.32 0,2 -12.9349,-0.0612 -25.86959,-0.13833 -38.80427,-0.23571 -6.00615,-0.0447 -12.01223,-0.084 -18.01848,-0.11073 -5.79674,-0.026 -11.59321,-0.0664 -17.38979,-0.11675 -2.21113,-0.0167 -4.4223,-0.0282 -6.63349,-0.0344 -3.09799,-0.01 -6.19531,-0.0377 -9.29313,-0.07 -1.37025,0.002 -1.37025,0.002 -2.76819,0.004 -7.90575,-0.11635 -12.55285,-2.46834 -18.15515,-8.12391 -7.58761,-7.81615 -11.07049,-13.77054 -11.12695,-24.72778 -0.0124,-1.28831 -0.0124,-1.28831 -0.0251,-2.60263 -0.0174,-1.86609 -0.0326,-3.7322 -0.0458,-5.59833 -0.021,-2.95498 -0.0481,-5.90985 -0.0767,-8.86476 -0.0597,-6.27713 -0.11182,-12.5543 -0.16296,-18.8315 -0.0593,-7.26367 -0.12167,-14.52729 -0.19188,-21.79086 -0.0265,-2.9081 -0.0474,-5.81621 -0.068,-8.72436 -0.0166,-1.78961 -0.0335,-3.57921 -0.0507,-5.36882 -0.006,-1.20889 -0.006,-1.20889 -0.0127,-2.44221 -0.0468,-4.22492 -0.34744,-8.19934 -1.17677,-12.36125 z"
     fill="#0b0e15"
     id="path35" />
  <path
     d="m -57.638505,499.97198 c -0.73605,0.51949 -1.47211,1.03898 -2.23047,1.57422 -7.312652,5.22372 -7.312652,5.22372 -13.76953,11.42578 -0.02687,-1.97909 -0.04633,-3.95829 -0.0625,-5.9375 -0.0116,-1.10215 -0.0232,-2.2043 -0.03516,-3.33984 0.09766,-2.72266 0.09766,-2.72266 1.09766,-3.72266 2.13994,-0.26203 4.287886,-0.46019 6.4375,-0.625 1.174336,-0.0954 2.34867,-0.19078 3.55859,-0.28906 3.00391,-0.0859 3.00391,-0.0859 5.00391,0.91406 z"
     fill="#d5d6d2"
     id="path406" />
  <path
     d="m -51.638505,692.97198 c 0.66,0.33 1.32,0.66 2,1 -1.293,2.88438 -2.65941,4.87219 -5,7 -0.33,-0.99 -0.66,-1.98 -1,-3 1.9375,-2.6875 1.9375,-2.6875 4,-5 z"
     fill="#cbcbd0"
     id="path468" />
  <path
     d="m 362.09899,588.82712 c 9.4221,5.67432 14.06393,12.98217 18.72411,22.72621 2.44322,12.21605 0.53559,21.58204 -6.07462,31.87387 -2.41811,3.47417 -4.78226,6.72823 -8.07566,9.43352 l -1.2985,1.48263 -0.98842,0.80429 c -9.86563,7.94063 -24.15928,6.39758 -36.2333,5.48501 -9.54278,-1.56773 -17.15042,-7.8263 -23.15501,-15.13293 -6.77742,-9.51078 -7.78322,-17.58412 -6.93221,-29.22963 1.90457,-9.68154 6.69276,-19.61388 14.73542,-25.62506 13.76587,-8.9937 34.80004,-10.0433 49.29819,-1.81791 z"
     fill="#0d0f16"
     id="path62"
     style="stroke-width:1.14346"
     sodipodi:nodetypes="ccccccccccc" />
  <path
     d="m 363.8802,417.19005 c 9.4221,5.67432 14.06393,12.98217 18.72411,22.72621 2.44322,12.21605 0.53559,21.58204 -6.07462,31.87387 -2.41811,3.47417 -4.78226,6.72823 -8.07566,9.43352 l -1.13377,1.31789 -1.15315,0.96903 c -9.86563,7.94063 -24.15928,6.39758 -36.2333,5.48501 -9.54278,-1.56773 -17.15042,-7.8263 -23.15501,-15.13293 -6.77742,-9.51078 -7.78322,-17.58412 -6.93221,-29.22963 1.90457,-9.68154 6.69276,-19.61388 14.73542,-25.62506 13.76587,-8.9937 34.80004,-10.0433 49.29819,-1.81791 z"
     fill="#0d0f16"
     id="path62-7"
     style="stroke-width:1.14346"
     sodipodi:nodetypes="ccccccccccc" />
  <path
     d="m 721.59706,506.43329 c 9.4221,5.67432 14.06393,12.98217 18.72411,22.72621 2.44322,12.21605 0.53559,21.58204 -6.07462,31.87387 -2.41811,3.47417 -4.78226,6.72823 -8.07566,9.43352 l -1.2985,1.31789 -0.98842,0.96903 c -9.86563,7.94063 -24.15928,6.39758 -36.2333,5.48501 -9.54278,-1.56773 -17.15042,-7.8263 -23.15501,-15.13293 -6.77742,-9.51078 -7.78322,-17.58412 -6.93221,-29.22963 1.90457,-9.68154 6.69276,-19.61388 14.73542,-25.62506 13.76587,-8.9937 34.80004,-10.0433 49.29819,-1.81791 z"
     fill="#0d0f16"
     id="path62-3"
     style="stroke-width:1.14346"
     sodipodi:nodetypes="ccccccccccc" />
  <path
     d="m 344.17879,428.62525 c 7.98532,2.97492 13.46031,7.74049 18.33644,14.70638 2.10998,6.52174 1.62537,11.97485 -0.74463,18.33644 -3.47437,5.39126 -7.39854,8.77203 -13.12405,11.6348 -8.87515,0.93992 -15.97387,0.0634 -23.82806,-4.46776 -5.77346,-5.14591 -7.86637,-8.72946 -9.0286,-16.3818 -0.26101,-5.27552 0.0864,-7.43154 2.32696,-12.37942 8.14848,-8.75963 13.81339,-13.00402 26.06194,-11.44864 z"
     fill="#d9d9d9"
     id="path320-1"
     style="stroke-width:1.48925" />
  <path
     d="m 343.19165,599.42283 c 7.98532,2.97492 13.46031,7.74049 18.33644,14.70638 2.10998,6.52174 1.62537,11.97485 -0.74463,18.33644 -3.47437,5.39126 -7.39854,8.77203 -13.12405,11.6348 -8.87515,0.93992 -15.97387,0.0634 -23.82806,-4.46776 -5.77346,-5.14591 -7.86637,-8.72946 -9.0286,-16.3818 -0.26101,-5.27552 0.0864,-7.43154 2.32696,-12.37942 8.14848,-8.75963 13.81339,-13.00402 26.06194,-11.44864 z"
     fill="#d9d9d9"
     id="path320-1-1"
     style="stroke-width:1.48925" />
  <path
     d="m 702.9291,516.33532 c 7.98532,2.97492 13.46031,7.74049 18.33644,14.70638 2.10998,6.52174 1.62537,11.97485 -0.74463,18.33644 -3.47437,5.39126 -7.39854,8.77203 -13.12405,11.6348 -8.87515,0.93992 -15.97387,0.0634 -23.82806,-4.46776 -5.77346,-5.14591 -7.86637,-8.72946 -9.0286,-16.3818 -0.26101,-5.27552 0.0864,-7.43154 2.32696,-12.37942 8.14848,-8.75963 13.81339,-13.00402 26.06194,-11.44864 z"
     fill="#d9d9d9"
     id="path320-1-7"
     style="stroke-width:1.48925" />
  <path
     d="m 432.88283,478.53064 c 0.75535,-0.005 1.51069,-0.009 2.28893,-0.0137 2.53258,-0.0127 5.06495,-0.011 7.59756,-0.009 1.81512,-0.006 3.63023,-0.0128 5.44534,-0.0204 4.93178,-0.0177 9.86348,-0.0224 14.79528,-0.0236 4.11544,-0.002 8.23087,-0.009 12.3463,-0.0163 9.70785,-0.0163 19.41567,-0.0212 29.12353,-0.0197 10.01911,0.001 20.03801,-0.0199 30.05707,-0.0515 8.59883,-0.0261 17.19758,-0.0369 25.79644,-0.0356 5.13716,5.1e-4 10.27412,-0.005 15.41123,-0.0264 4.83045,-0.0193 9.66053,-0.0195 14.491,-0.005 1.77333,0.002 3.54669,-0.003 5.31999,-0.0147 2.4201,-0.0154 4.8389,-0.006 7.25897,0.009 0.70253,-0.0103 1.40507,-0.0206 2.12889,-0.0312 4.75875,0.0671 7.12567,1.1725 10.46878,4.52565 2.45918,3.68876 2.81592,6.71844 2,11 -1.7445,3.02207 -3.83302,5.41651 -7,7 -9.18947,1.42382 -18.57807,1.14859 -27.85083,1.14526 -1.67659,0.003 -3.35319,0.006 -5.02978,0.0102 -4.52234,0.009 -9.04466,0.0112 -13.56701,0.0118 -2.82851,7.1e-4 -5.65701,0.003 -8.48552,0.005 -9.8754,0.009 -19.75078,0.0133 -29.62618,0.0126 -9.19609,-6e-4 -18.39212,0.01 -27.5882,0.0257 -7.91023,0.0131 -15.82044,0.0184 -23.73068,0.0178 -4.7184,-2.6e-4 -9.43675,0.003 -14.15513,0.0132 -4.43157,0.01 -8.86303,0.01 -13.2946,0.002 -1.62456,-10e-4 -3.24913,0.001 -4.87368,0.007 -2.21981,0.008 -4.43926,0.003 -6.65906,-0.005 -1.24119,5.4e-4 -2.48239,0.001 -3.7612,0.002 -6.53421,-0.48142 -10.07341,-2.32922 -14.37813,-7.24889 -1.45148,-2.90296 -1.37239,-4.77262 -1,-8 4.76921,-6.88901 8.35952,-8.30322 16.47069,-8.26757 z"
     fill="#cecfcd"
     id="path50" />
  <path
     d="m 432.72278,515.80609 c 0.75535,-0.005 1.51069,-0.009 2.28893,-0.0137 2.53258,-0.0127 5.06495,-0.011 7.59756,-0.009 1.81512,-0.006 3.63023,-0.0128 5.44534,-0.0204 4.93178,-0.0177 9.86348,-0.0224 14.79528,-0.0236 4.11544,-0.002 8.23087,-0.009 12.3463,-0.0163 9.70785,-0.0163 19.41567,-0.0212 29.12353,-0.0197 10.01911,10e-4 20.03801,-0.0199 30.05707,-0.0515 8.59883,-0.0261 17.19758,-0.0369 25.79644,-0.0356 5.13716,5.1e-4 10.27412,-0.005 15.41123,-0.0264 4.83045,-0.0193 9.66053,-0.0195 14.491,-0.005 1.77333,0.002 3.54669,-0.003 5.31999,-0.0147 2.4201,-0.0154 4.8389,-0.006 7.25897,0.009 0.70253,-0.0103 1.40507,-0.0206 2.12889,-0.0312 4.75875,0.0671 7.12567,1.1725 10.46878,4.52565 2.45918,3.68876 2.81592,6.71844 2,11 -1.7445,3.02207 -3.83302,5.41651 -7,7 -9.18947,1.42382 -18.57807,1.14859 -27.85083,1.14526 -1.67659,0.003 -3.35319,0.006 -5.02978,0.0102 -4.52234,0.009 -9.04466,0.0112 -13.56701,0.0118 -2.82851,7.1e-4 -5.65701,0.003 -8.48552,0.005 -9.8754,0.009 -19.75078,0.0133 -29.62618,0.0126 -9.19609,-6e-4 -18.39212,0.01 -27.5882,0.0257 -7.91023,0.0131 -15.82044,0.0184 -23.73068,0.0178 -4.7184,-2.6e-4 -9.43675,0.003 -14.15513,0.0132 -4.43157,0.01 -8.86303,0.01 -13.2946,0.002 -1.62456,-10e-4 -3.24913,0.001 -4.87368,0.007 -2.21981,0.008 -4.43926,0.003 -6.65906,-0.005 -1.24119,5.4e-4 -2.48239,10e-4 -3.7612,0.002 -6.53421,-0.48142 -10.07341,-2.32922 -14.37813,-7.24889 -1.45148,-2.90296 -1.37239,-4.77262 -1,-8 4.76921,-6.88901 8.35952,-8.30322 16.47069,-8.26757 z"
     fill="#cecfcd"
     id="path50-6" />
  <path
     d="m 435.10978,553.39432 c 0.75535,-0.005 1.51069,-0.009 2.28893,-0.0137 2.53258,-0.0127 5.06495,-0.011 7.59756,-0.009 1.81512,-0.006 3.63023,-0.0128 5.44534,-0.0204 4.93178,-0.0177 9.86348,-0.0224 14.79528,-0.0236 4.11544,-0.002 8.23087,-0.009 12.3463,-0.0163 9.70785,-0.0163 19.41567,-0.0212 29.12353,-0.0197 10.01911,0.001 20.03801,-0.0199 30.05707,-0.0515 8.59883,-0.0261 17.19758,-0.0369 25.79644,-0.0356 5.13716,5.1e-4 10.27412,-0.005 15.41123,-0.0264 4.83045,-0.0193 9.66053,-0.0195 14.491,-0.005 1.77333,0.002 3.54669,-0.003 5.31999,-0.0147 2.4201,-0.0154 4.8389,-0.006 7.25897,0.009 0.70253,-0.0103 1.40507,-0.0206 2.12889,-0.0312 4.75875,0.0671 7.12567,1.1725 10.46878,4.52565 2.45918,3.68876 2.81592,6.71844 2,11 -1.7445,3.02207 -3.83302,5.41651 -7,7 -9.18947,1.42382 -18.57807,1.14859 -27.85083,1.14526 -1.67659,0.003 -3.35319,0.006 -5.02978,0.0102 -4.52234,0.009 -9.04466,0.0112 -13.56701,0.0118 -2.82851,7.1e-4 -5.65701,0.003 -8.48552,0.005 -9.8754,0.009 -19.75078,0.0133 -29.62618,0.0126 -9.19609,-6e-4 -18.39212,0.01 -27.5882,0.0257 -7.91023,0.0131 -15.82044,0.0184 -23.73068,0.0178 -4.7184,-2.6e-4 -9.43675,0.003 -14.15513,0.0132 -4.43157,0.01 -8.86303,0.01 -13.2946,0.002 -1.62456,-10e-4 -3.24913,10e-4 -4.87368,0.007 -2.21981,0.008 -4.43926,0.003 -6.65906,-0.005 -1.24119,5.4e-4 -2.48239,10e-4 -3.7612,0.002 -6.53421,-0.48142 -10.07341,-2.32922 -14.37813,-7.24889 -1.45148,-2.90296 -1.37239,-4.77262 -1,-8 4.76921,-6.88901 8.35952,-8.30322 16.47069,-8.26757 z"
     fill="#cecfcd"
     id="path50-6-7" />
  <path
     d="m 435.22433,628.10021 c 0.75535,-0.005 1.51069,-0.009 2.28893,-0.0137 2.53258,-0.0127 5.06495,-0.011 7.59756,-0.009 1.81512,-0.006 3.63023,-0.0128 5.44534,-0.0204 4.93178,-0.0177 9.86348,-0.0224 14.79528,-0.0236 4.11544,-0.002 8.23087,-0.009 12.3463,-0.0163 9.70785,-0.0163 19.41567,-0.0212 29.12353,-0.0197 10.01911,10e-4 20.03801,-0.0199 30.05707,-0.0515 8.59883,-0.0261 17.19758,-0.0369 25.79644,-0.0356 5.13716,5.1e-4 10.27412,-0.005 15.41123,-0.0264 4.83045,-0.0193 9.66053,-0.0195 14.491,-0.005 1.77333,0.002 3.54669,-0.003 5.31999,-0.0147 2.4201,-0.0154 4.8389,-0.006 7.25897,0.009 0.70253,-0.0103 1.40507,-0.0206 2.12889,-0.0312 4.75875,0.0671 7.12567,1.1725 10.46878,4.52565 2.45918,3.68876 2.81592,6.71844 2,11 -1.7445,3.02207 -3.83302,5.41651 -7,7 -9.18947,1.42382 -18.57807,1.14859 -27.85083,1.14526 -1.67659,0.003 -3.35319,0.006 -5.02978,0.0102 -4.52234,0.009 -9.04466,0.0112 -13.56701,0.0118 -2.82851,7.1e-4 -5.65701,0.003 -8.48552,0.005 -9.8754,0.009 -19.75078,0.0133 -29.62618,0.0126 -9.19609,-6e-4 -18.39212,0.01 -27.5882,0.0257 -7.91023,0.0131 -15.82044,0.0184 -23.73068,0.0178 -4.7184,-2.6e-4 -9.43675,0.003 -14.15513,0.0132 -4.43157,0.01 -8.86303,0.01 -13.2946,0.002 -1.62456,-10e-4 -3.24913,10e-4 -4.87368,0.007 -2.21981,0.008 -4.43926,0.003 -6.65906,-0.005 -1.24119,5.4e-4 -2.48239,10e-4 -3.7612,0.002 -6.53421,-0.48142 -10.07341,-2.32922 -14.37813,-7.24889 -1.45148,-2.90296 -1.37239,-4.77262 -1,-8 4.76921,-6.88901 8.35952,-8.30322 16.47069,-8.26757 z"
     fill="#cecfcd"
     id="path50-6-7-24" />
  <path
     d="m 402.38174,878.90895 c 1.03268,-0.002 2.06535,-0.003 3.12933,-0.005 3.46245,-0.004 6.92459,-0.004 10.38708,-0.003 2.48157,-0.002 4.96309,-0.004 7.44464,-0.007 6.74253,-0.006 13.48495,-0.007 20.22752,-0.008 5.62646,-6.7e-4 11.25289,-0.003 16.87934,-0.005 13.27219,-0.005 26.54433,-0.007 39.81651,-0.007 13.69773,3.3e-4 27.39515,-0.007 41.0928,-0.0172 11.75597,-0.009 23.51184,-0.0123 35.26785,-0.0119 7.02332,1.7e-4 14.04635,-0.002 21.06959,-0.009 6.60401,-0.006 13.20751,-0.007 19.81152,-0.002 2.42441,6.7e-4 4.84889,-10e-4 7.27328,-0.005 3.30866,-0.005 6.61554,-0.002 9.92415,0.003 0.96048,-0.003 1.92096,-0.007 2.91054,-0.0104 6.50597,0.0224 9.74192,0.3914 14.31249,1.51072 3.36209,1.23136 3.8498,2.24271 2.73432,3.67195 -2.38501,1.0088 -5.24035,1.8081 -9.57011,2.33669 -12.56348,0.47529 -25.39919,0.38341 -38.07653,0.3823 -2.29217,10e-4 -4.58434,0.002 -6.8765,0.003 -6.18278,0.003 -12.3655,0.004 -18.54827,0.004 -3.86703,2.4e-4 -7.73402,10e-4 -11.60108,0.002 -13.50122,0.003 -27.00244,0.004 -40.50368,0.004 -12.57253,-2e-4 -25.14497,0.003 -37.71747,0.009 -10.81455,0.004 -21.62906,0.006 -32.44363,0.006 -6.45079,-9e-5 -12.90152,10e-4 -19.35231,0.004 -6.05866,0.003 -12.11716,0.003 -18.17583,6.6e-4 -2.22103,-3.3e-4 -4.44208,3.4e-4 -6.6631,0.002 -3.03483,0.003 -6.06918,10e-4 -9.10399,-0.002 -1.69691,1.8e-4 -3.39382,3.3e-4 -5.14218,6.7e-4 -8.93329,-0.16071 -13.77195,-0.77753 -19.65717,-2.41977 -1.9844,-0.96905 -1.87628,-1.59317 -1.36717,-2.67051 6.52028,-2.29964 11.4288,-2.77172 22.51806,-2.75982 z"
     fill="#cecfcd"
     id="path50-6-7-24-4"
     style="fill:#4d4d4d;stroke-width:0.675556" />
  <path
     d="m 433.246,590.80609 c 0.75535,-0.005 1.51069,-0.009 2.28893,-0.0137 2.53258,-0.0127 5.06495,-0.011 7.59756,-0.009 1.81512,-0.006 3.63023,-0.0128 5.44534,-0.0204 4.93178,-0.0177 9.86348,-0.0224 14.79528,-0.0236 4.11544,-0.002 8.23087,-0.009 12.3463,-0.0163 9.70785,-0.0163 19.41567,-0.0212 29.12353,-0.0197 10.01911,10e-4 20.03801,-0.0199 30.05707,-0.0515 8.59883,-0.0261 17.19758,-0.0369 25.79644,-0.0356 5.13716,5.1e-4 10.27412,-0.005 15.41123,-0.0264 4.83045,-0.0193 9.66053,-0.0195 14.491,-0.005 1.77333,0.002 3.54669,-0.003 5.31999,-0.0147 2.4201,-0.0154 4.8389,-0.006 7.25897,0.009 0.70253,-0.0103 1.40507,-0.0206 2.12889,-0.0312 4.75875,0.0671 7.12567,1.1725 10.46878,4.52565 2.45918,3.68876 2.81592,6.71844 2,11 -1.7445,3.02207 -3.83302,5.41651 -7,7 -9.18947,1.42382 -18.57807,1.14859 -27.85083,1.14526 -1.67659,0.003 -3.35319,0.006 -5.02978,0.0102 -4.52234,0.009 -9.04466,0.0112 -13.56701,0.0118 -2.82851,7.1e-4 -5.65701,0.003 -8.48552,0.005 -9.8754,0.009 -19.75078,0.0133 -29.62618,0.0126 -9.19609,-6e-4 -18.39212,0.01 -27.5882,0.0257 -7.91023,0.0131 -15.82044,0.0184 -23.73068,0.0178 -4.7184,-2.6e-4 -9.43675,0.003 -14.15513,0.0132 -4.43157,0.01 -8.86303,0.01 -13.2946,0.002 -1.62456,-10e-4 -3.24913,0.001 -4.87368,0.007 -2.21981,0.008 -4.43926,0.003 -6.65906,-0.005 -1.24119,5.4e-4 -2.48239,10e-4 -3.7612,0.002 -6.53421,-0.48142 -10.07341,-2.32922 -14.37813,-7.24889 -1.45148,-2.90296 -1.37239,-4.77262 -1,-8 4.76921,-6.88901 8.35952,-8.30322 16.47069,-8.26757 z"
     fill="#cecfcd"
     id="path50-6-7-2" />
</svg>
